<svg width="28" height="24" viewBox="0 0 28 24" fill="none" xmlns="http://www.w3.org/2000/svg">
<path d="M5.965 0.500001H1.465M18.565 3.5V12.5M23.065 8H14.065M6.32499 0.5L9.565 12.26C9.83543 13.1874 10.3971 14.0031 11.167 14.5866C11.9369 15.1701 12.8741 15.4903 13.84 15.5H26.95V0.5H6.32499ZM16.465 20.75C16.465 21.9926 15.4576 23 14.215 23C12.9724 23 11.965 21.9926 11.965 20.75C11.965 19.5074 12.9724 18.5 14.215 18.5C15.4576 18.5 16.465 19.5074 16.465 20.75ZM26.965 20.75C26.965 21.9926 25.9576 23 24.715 23C23.4724 23 22.465 21.9926 22.465 20.75C22.465 19.5074 23.4724 18.5 24.715 18.5C25.9576 18.5 26.965 19.5074 26.965 20.75Z" stroke="#1C1C1E" stroke-linecap="round" stroke-linejoin="round"/>
</svg>
