<svg width="16" height="16" viewBox="0 0 16 16" fill="none" xmlns="http://www.w3.org/2000/svg">
<rect width="16" height="16" rx="8" fill="#4D4D4D"/>
<path fill-rule="evenodd" clip-rule="evenodd" d="M5.18416 5.18416C4.93861 5.42971 4.93861 5.82782 5.18416 6.07337L7.11079 8L5.18416 9.92663C4.93861 10.1722 4.93861 10.5703 5.18416 10.8158C5.42971 11.0614 5.82782 11.0614 6.07337 10.8158L8 8.88921L9.92663 10.8158C10.1722 11.0614 10.5703 11.0614 10.8158 10.8158C11.0614 10.5703 11.0614 10.1722 10.8158 9.92663L8.88921 8L10.8158 6.07337C11.0614 5.82782 11.0614 5.42971 10.8158 5.18416C10.5703 4.93861 10.1722 4.93861 9.92663 5.18416L8 7.11079L6.07337 5.18416C5.82782 4.93861 5.42971 4.93861 5.18416 5.18416Z" fill="white"/>
</svg>
