<svg width="18" height="18" viewBox="0 0 18 18" fill="none" xmlns="http://www.w3.org/2000/svg">
<path d="M1.28571 4.5H16.7143" stroke="#DE0606" stroke-width="1.2" stroke-linecap="round" stroke-linejoin="round"/>
<path d="M3.21426 4.5H14.7857V16.0714C14.7857 16.4124 14.6502 16.7395 14.4091 16.9806C14.168 17.2216 13.8409 17.3571 13.5 17.3571H4.49998C4.15898 17.3571 3.83196 17.2216 3.59084 16.9806C3.34973 16.7395 3.21426 16.4124 3.21426 16.0714V4.5Z" stroke="#DE0606" stroke-width="1.2" stroke-linecap="round" stroke-linejoin="round"/>
<path d="M5.78571 4.49997V3.85711C5.78571 3.00463 6.12435 2.18706 6.72714 1.58426C7.32994 0.981469 8.14751 0.642822 8.99999 0.642822C9.85247 0.642822 10.67 0.981469 11.2728 1.58426C11.8756 2.18706 12.2143 3.00463 12.2143 3.85711V4.49997" stroke="#DE0606" stroke-width="1.2" stroke-linecap="round" stroke-linejoin="round"/>
<path d="M7.07141 8.35901V13.5038" stroke="#DE0606" stroke-width="1.2" stroke-linecap="round" stroke-linejoin="round"/>
<path d="M10.9286 8.35901V13.5038" stroke="#DE0606" stroke-width="1.2" stroke-linecap="round" stroke-linejoin="round"/>
</svg>
