<svg width="18" height="18" viewBox="0 0 18 18" fill="none" xmlns="http://www.w3.org/2000/svg">
<path d="M6.4286 15.7371L0.642883 17.3571L2.26288 11.5714L12.8572 1.02856C12.9769 0.906104 13.12 0.808802 13.2777 0.742373C13.4356 0.675943 13.6052 0.641724 13.7765 0.641724C13.9477 0.641724 14.1173 0.675943 14.2752 0.742373C14.4329 0.808802 14.576 0.906104 14.6957 1.02856L16.9715 3.31713C17.0919 3.43665 17.1876 3.57887 17.2529 3.73553C17.3182 3.89221 17.3518 4.06026 17.3518 4.22999C17.3518 4.39972 17.3182 4.56777 17.2529 4.72445C17.1876 4.88113 17.0919 5.02333 16.9715 5.14285L6.4286 15.7371Z" stroke="#024FC2" stroke-width="1.2" stroke-linecap="round" stroke-linejoin="round"/>
</svg>
