<svg width="25" height="25" viewBox="0 0 25 25" fill="none" xmlns="http://www.w3.org/2000/svg">
<path d="M20.5357 8.92854C20.5357 14.2857 12.5 20.5357 12.5 20.5357C12.5 20.5357 4.46429 14.2857 4.46429 8.92854C4.46429 4.55175 8.12322 0.892822 12.5 0.892822C16.8768 0.892822 20.5357 4.55175 20.5357 8.92854Z" stroke="black" stroke-linecap="round" stroke-linejoin="round"/>
<path d="M12.5 11.6071C13.9794 11.6071 15.1786 10.4079 15.1786 8.92857C15.1786 7.44923 13.9794 6.25 12.5 6.25C11.0207 6.25 9.82147 7.44923 9.82147 8.92857C9.82147 10.4079 11.0207 11.6071 12.5 11.6071Z" stroke="black" stroke-linecap="round" stroke-linejoin="round"/>
<path d="M19.7809 17.8571H21.4286L24.1072 24.1071H0.892883L3.57145 17.8571H5.21913" stroke="black" stroke-linecap="round" stroke-linejoin="round"/>
</svg>
