<svg width="16" height="12" viewBox="0 0 16 12" fill="none" xmlns="http://www.w3.org/2000/svg">
<path d="M8 0.666664C4.36364 0.666664 1.25818 2.92848 0 6.12121C1.25818 9.31394 4.36364 11.5758 8 11.5758C11.6364 11.5758 14.7418 9.31394 16 6.12121C14.7418 2.92848 11.6364 0.666664 8 0.666664ZM8 9.75757C5.99273 9.75757 4.36364 8.12848 4.36364 6.12121C4.36364 4.11394 5.99273 2.48485 8 2.48485C10.0073 2.48485 11.6364 4.11394 11.6364 6.12121C11.6364 8.12848 10.0073 9.75757 8 9.75757ZM8 3.93939C6.79273 3.93939 5.81818 4.91394 5.81818 6.12121C5.81818 7.32848 6.79273 8.30303 8 8.30303C9.20727 8.30303 10.1818 7.32848 10.1818 6.12121C10.1818 4.91394 9.20727 3.93939 8 3.93939Z" fill="#4D4D4D"/>
</svg>
