<svg width="27" height="27" viewBox="0 0 27 27" fill="none" xmlns="http://www.w3.org/2000/svg">
<path fill-rule="evenodd" clip-rule="evenodd" d="M13.5003 9.32815C11.1962 9.32815 9.32841 11.196 9.32841 13.5C9.32841 15.8041 11.1962 17.6719 13.5003 17.6719C15.8044 17.6719 17.6722 15.8041 17.6722 13.5C17.6722 11.196 15.8044 9.32815 13.5003 9.32815ZM12.1097 13.5C12.1097 12.732 12.7323 12.1094 13.5003 12.1094C14.2684 12.1094 14.891 12.732 14.891 13.5C14.891 14.268 14.2684 14.8906 13.5003 14.8906C12.7323 14.8906 12.1097 14.268 12.1097 13.5Z" fill="#464A54"/>
<path fill-rule="evenodd" clip-rule="evenodd" d="M17.2217 0.097703C15.7151 -0.31984 14.3326 0.655627 13.9533 1.98309L13.8413 2.37499L13.1579 2.37499L13.046 1.98328C12.6667 0.655764 11.2841 -0.319717 9.77745 0.0979439C8.67541 0.403442 7.62861 0.841032 6.6553 1.39232C5.29544 2.16255 5.00683 3.82957 5.6776 5.03694L5.87489 5.39206L5.39169 5.87526L5.03666 5.67803C3.82926 5.00726 2.16217 5.29589 1.39196 6.6558C0.840732 7.62908 0.403194 8.67583 0.0977356 9.7778C-0.319885 11.2844 0.655603 12.667 1.98311 13.0463L2.37519 13.1583L2.37519 13.8417L1.98311 13.9537C0.655601 14.333 -0.319887 15.7155 0.0977321 17.2222C0.403189 18.3241 0.840727 19.3709 1.39196 20.3442C2.16216 21.7041 3.82925 21.9927 5.03666 21.3219L5.39169 21.1247L5.87489 21.6079L5.67759 21.963C5.00683 23.1704 5.29543 24.8374 6.65529 25.6076C7.62857 26.1589 8.67532 26.5965 9.77731 26.902C11.284 27.3197 12.6666 26.3442 13.0459 25.0167L13.1578 24.625L13.8412 24.625L13.9532 25.0169C14.3324 26.3444 15.715 27.3198 17.2216 26.9023C18.3237 26.5969 19.3707 26.1593 20.3441 25.608C21.7041 24.8378 21.9927 23.1707 21.3219 21.9633L21.1247 21.6084L21.6079 21.1252L21.9631 21.3225C23.1704 21.9932 24.8374 21.7046 25.6077 20.3448C26.1591 19.3713 26.5967 18.3244 26.9023 17.2222C27.3199 15.7156 26.3444 14.333 25.0169 13.9537L24.6247 13.8417V13.1583L25.0169 13.0463C26.3444 12.667 27.3199 11.2844 26.9023 9.77777C26.5968 8.67573 26.1592 7.62893 25.6079 6.6556C24.8377 5.29572 23.1706 5.0071 21.9633 5.67787L21.6079 5.87526L21.1247 5.39206L21.3221 5.03677C21.9929 3.82939 21.7043 2.16233 20.3444 1.39212C19.3709 0.840781 18.3239 0.403175 17.2217 0.097703ZM16.5156 3.13906L16.6083 2.81463C17.3973 3.04371 18.1504 3.35797 18.857 3.74701L18.6935 4.04136C18.0904 5.12687 18.28 6.48063 19.1581 7.3587L19.6413 7.8419C20.5194 8.71996 21.8731 8.90956 22.9587 8.30651L23.253 8.14296C23.642 8.84944 23.9562 9.60239 24.1853 10.3913L23.8607 10.4841C22.6666 10.8252 21.8435 11.9165 21.8435 13.1583V13.8417C21.8435 15.0834 22.6666 16.1747 23.8607 16.5159L24.1853 16.6087C23.9562 17.3977 23.6419 18.1508 23.2528 18.8574L22.9587 18.6939C21.8731 18.0909 20.5194 18.2805 19.6413 19.1585L19.1581 19.6417C18.28 20.5198 18.0904 21.8736 18.6935 22.9591L18.8568 23.2531C18.1502 23.6421 17.3972 23.9563 16.6081 24.1854L16.5154 23.8609C16.1743 22.6669 15.083 21.8437 13.8412 21.8437H13.1578C11.916 21.8437 10.8247 22.6669 10.4836 23.8609L10.3909 24.1851C9.60206 23.956 8.84915 23.6418 8.14271 23.2528L8.30617 22.9586C8.90923 21.8731 8.71963 20.5193 7.84155 19.6413L7.35835 19.1581C6.48027 18.28 5.1265 18.0904 4.04098 18.6934L3.74688 18.8568C3.35793 18.1504 3.04373 17.3975 2.81467 16.6086L3.13927 16.5159C4.33328 16.1747 5.15647 15.0834 5.15647 13.8417V13.1583C5.15647 11.9165 4.33328 10.8252 3.13927 10.4841L2.81467 10.3913C3.04373 9.60247 3.35794 8.84956 3.74689 8.14313L4.04098 8.30651C5.1265 8.90957 6.48027 8.71997 7.35835 7.8419L7.84155 7.3587C8.71963 6.48064 8.90923 5.12687 8.30617 4.04137L8.14272 3.74717C8.84919 3.35818 9.60214 3.04393 10.391 2.81484L10.4837 3.13906C10.8248 4.33306 11.9162 5.15624 13.1579 5.15624H13.8413C15.0831 5.15624 16.1744 4.33306 16.5156 3.13906ZM8.14272 3.74717C8.10368 3.76866 8.06478 3.79039 8.02603 3.81234C8.04445 3.8019 8.06489 3.78456 8.0813 3.76228C8.0968 3.74124 8.10393 3.72244 8.10693 3.71015C8.11012 3.69707 8.1093 3.68944 8.10863 3.68638L8.14272 3.74717ZM3.74689 8.14313L3.68596 8.10928C3.68902 8.10994 3.69678 8.11053 3.70987 8.10734C3.72215 8.10434 3.74095 8.0972 3.76199 8.08171C3.78428 8.06529 3.80162 8.04485 3.81205 8.02643C3.7901 8.06519 3.76838 8.10408 3.74689 8.14313ZM2.81467 10.3913C2.80218 10.4343 2.78994 10.4775 2.77795 10.5207C2.78365 10.5002 2.78585 10.4733 2.78168 10.4458C2.77774 10.4198 2.76944 10.4013 2.76283 10.3904C2.75578 10.3788 2.74976 10.374 2.74711 10.3723L2.81467 10.3913ZM2.81467 16.6086L2.74718 16.6279C2.74614 16.6282 2.74567 16.6284 2.74567 16.6284C2.74517 16.6287 2.74568 16.6285 2.74567 16.6284C2.74567 16.6284 2.74614 16.6282 2.74718 16.6279C2.74983 16.6262 2.75578 16.6211 2.76283 16.6095C2.76944 16.5986 2.77774 16.5802 2.78168 16.5542C2.78585 16.5267 2.78364 16.4998 2.77795 16.4792C2.78993 16.5225 2.80217 16.5656 2.81467 16.6086ZM3.74688 18.8568C3.76837 18.8959 3.7901 18.9348 3.81205 18.9735C3.80162 18.9551 3.78427 18.9347 3.76199 18.9183C3.74094 18.9028 3.72215 18.8956 3.70986 18.8926C3.69677 18.8894 3.68915 18.8903 3.68608 18.8909C3.68545 18.8911 3.68633 18.8908 3.68608 18.8909L3.74688 18.8568ZM8.14271 23.2528L8.10887 23.3137C8.1078 23.3156 8.10841 23.3158 8.10887 23.3137C8.10953 23.3107 8.11012 23.3029 8.10693 23.2898C8.10393 23.2775 8.0968 23.2587 8.0813 23.2377C8.06488 23.2154 8.04445 23.1981 8.02602 23.1876C8.06478 23.2096 8.10368 23.2313 8.14271 23.2528ZM10.3909 24.1851C10.434 24.1976 10.4771 24.2098 10.5203 24.2218C10.4998 24.2161 10.4729 24.2139 10.4454 24.2181C10.4194 24.222 10.4009 24.2303 10.39 24.2369C10.3784 24.244 10.3736 24.25 10.3719 24.2527C10.3707 24.2545 10.3713 24.2548 10.3719 24.2527L10.3909 24.1851ZM16.6081 24.1854L16.6274 24.2528C16.628 24.255 16.6286 24.2547 16.6274 24.2528C16.6257 24.2502 16.6206 24.2443 16.609 24.2372C16.5982 24.2306 16.5797 24.2223 16.5537 24.2184C16.5262 24.2142 16.4993 24.2164 16.4788 24.2221C16.522 24.2101 16.5651 24.1979 16.6081 24.1854ZM18.8568 23.2531C18.8958 23.2316 18.9347 23.2098 18.9735 23.1879C18.9551 23.1983 18.9346 23.2157 18.9182 23.238C18.9027 23.259 18.8956 23.2778 18.8926 23.2901C18.8894 23.3032 18.8902 23.3108 18.8909 23.3139C18.8913 23.316 18.892 23.3158 18.8909 23.3139L18.8568 23.2531ZM23.2528 18.8574L23.3138 18.8912C23.3157 18.8923 23.3159 18.8917 23.3138 18.8912C23.3107 18.8905 23.3029 18.8899 23.2899 18.8931C23.2776 18.8961 23.2588 18.9033 23.2377 18.9188C23.2154 18.9352 23.1981 18.9556 23.1877 18.974C23.2096 18.9353 23.2313 18.8964 23.2528 18.8574ZM24.1853 16.6087C24.1978 16.5656 24.2101 16.5225 24.2221 16.4793C24.2164 16.4998 24.2142 16.5267 24.2183 16.5542C24.2223 16.5802 24.2306 16.5987 24.2372 16.6095C24.2442 16.6211 24.2502 16.626 24.2529 16.6277C24.2547 16.6288 24.255 16.6283 24.2529 16.6277L24.1853 16.6087ZM24.1853 10.3913L24.2528 10.372C24.2502 10.3737 24.2442 10.3788 24.2372 10.3904C24.2306 10.4013 24.2223 10.4197 24.2183 10.4457C24.2141 10.4733 24.2164 10.5001 24.222 10.5207C24.2101 10.4775 24.1978 10.4343 24.1853 10.3913ZM23.314 8.10911L23.253 8.14296C23.2315 8.10392 23.2098 8.06502 23.1879 8.02627C23.1983 8.04469 23.2156 8.06513 23.2379 8.08154C23.259 8.09704 23.2778 8.10417 23.29 8.10717C23.3031 8.11036 23.3109 8.10977 23.314 8.10911ZM23.3152 8.10848C23.3153 8.10845 23.3154 8.10842 23.3152 8.10848V8.10848ZM18.857 3.74701L18.8908 3.68608C18.8902 3.68914 18.8896 3.6969 18.8928 3.70999C18.8958 3.72228 18.9029 3.74108 18.9184 3.76212C18.9348 3.7844 18.9553 3.80175 18.9737 3.81218C18.9349 3.79023 18.896 3.7685 18.857 3.74701Z" fill="#464A54"/>
</svg>
