<svg width="25" height="25" viewBox="0 0 25 25" fill="none" xmlns="http://www.w3.org/2000/svg">
<path d="M21.7532 13.3929H7.14613L5.36041 4.46428H23.2175C23.3482 4.46476 23.477 4.49387 23.5952 4.54958C23.7132 4.60528 23.8177 4.68623 23.9011 4.78669C23.9846 4.88714 24.045 5.00469 24.078 5.13101C24.1111 5.25735 24.1161 5.38939 24.0925 5.51785L22.6282 12.6607C22.5941 12.8672 22.487 13.0547 22.3264 13.189C22.1659 13.3233 21.9625 13.3957 21.7532 13.3929Z" stroke="#1C1C1C" stroke-linecap="round" stroke-linejoin="round"/>
<path d="M5.3604 4.46428L4.6104 1.60714C4.56924 1.40547 4.45965 1.22421 4.30021 1.09405C4.14076 0.963885 3.94124 0.89281 3.7354 0.892853H0.896118" stroke="#1C1C1C" stroke-linecap="round" stroke-linejoin="round"/>
<path d="M7.14612 13.3929L7.89612 17.1429C7.93728 17.3445 8.04687 17.5258 8.20631 17.6559C8.36576 17.7861 8.5653 17.8571 8.77112 17.8571H19.6461" stroke="#1C1C1C" stroke-linecap="round" stroke-linejoin="round"/>
<path d="M18.7532 24.1071C18.2602 24.1071 17.8604 23.7073 17.8604 23.2143C17.8604 22.7212 18.2602 22.3214 18.7532 22.3214C19.2464 22.3214 19.6461 22.7212 19.6461 23.2143C19.6461 23.7073 19.2464 24.1071 18.7532 24.1071Z" stroke="#1C1C1C" stroke-linecap="round" stroke-linejoin="round"/>
<path d="M9.82468 24.1071C9.33157 24.1071 8.93182 23.7073 8.93182 23.2143C8.93182 22.7212 9.33157 22.3214 9.82468 22.3214C10.3178 22.3214 10.7175 22.7212 10.7175 23.2143C10.7175 23.7073 10.3178 24.1071 9.82468 24.1071Z" stroke="#1C1C1C" stroke-linecap="round" stroke-linejoin="round"/>
</svg>
