<svg width="25" height="25" viewBox="0 0 25 25" fill="none" xmlns="http://www.w3.org/2000/svg">
<path d="M12.5001 14.2857C14.9656 14.2857 16.9643 12.287 16.9643 9.82142C16.9643 7.35586 14.9656 5.35713 12.5001 5.35713C10.0345 5.35713 8.03577 7.35586 8.03577 9.82142C8.03577 12.287 10.0345 14.2857 12.5001 14.2857Z" stroke="black" stroke-opacity="0.3" stroke-linecap="round" stroke-linejoin="round"/>
<path d="M4.875 21.25C5.67186 19.942 6.7918 18.8609 8.12716 18.1109C9.46252 17.3607 10.9684 16.9667 12.5 16.9667C14.0316 16.9667 15.5375 17.3607 16.8728 18.1109C18.2082 18.8609 19.3281 19.942 20.125 21.25" stroke="black" stroke-opacity="0.3" stroke-linecap="round" stroke-linejoin="round"/>
<path d="M12.5 24.1071C18.9106 24.1071 24.1072 18.9105 24.1072 12.5C24.1072 6.08955 18.9106 0.892853 12.5 0.892853C6.08958 0.892853 0.892883 6.08955 0.892883 12.5C0.892883 18.9105 6.08958 24.1071 12.5 24.1071Z" stroke="black" stroke-opacity="0.3" stroke-linecap="round" stroke-linejoin="round"/>
</svg>
