<svg width="93" height="97" viewBox="0 0 93 97" fill="none" xmlns="http://www.w3.org/2000/svg">
<g filter="url(#filter0_di_37_96)">
<ellipse cx="46.5" cy="41.5" rx="37.5" ry="38.5" fill="#D9D9D9"/>
<path d="M82.7 41.5C82.7 62.0775 66.4607 78.7 46.5 78.7C26.5393 78.7 10.3 62.0775 10.3 41.5C10.3 20.9225 26.5393 4.3 46.5 4.3C66.4607 4.3 82.7 20.9225 82.7 41.5Z" stroke="url(#paint0_linear_37_96)" stroke-width="2.6"/>
</g>
<g filter="url(#filter1_d_37_96)">
<ellipse cx="46.5" cy="55.5" rx="22.5" ry="14.5" fill="url(#paint1_linear_37_96)" shape-rendering="crispEdges"/>
<path d="M68.1584 55.5C68.1584 59.1216 65.8795 62.5159 61.954 65.0457C58.0373 67.5697 52.5758 69.1584 46.5 69.1584C40.4242 69.1584 34.9627 67.5697 31.046 65.0457C27.1205 62.5159 24.8416 59.1216 24.8416 55.5C24.8416 51.8784 27.1205 48.4841 31.046 45.9543C34.9627 43.4303 40.4242 41.8416 46.5 41.8416C52.5758 41.8416 58.0373 43.4303 61.954 45.9543C65.8795 48.4841 68.1584 51.8784 68.1584 55.5Z" stroke="white" stroke-opacity="0.7" stroke-width="1.68313" shape-rendering="crispEdges"/>
</g>
<g filter="url(#filter2_d_37_96)">
<circle cx="46.5" cy="27.5" r="11.5" fill="url(#paint2_linear_37_96)" shape-rendering="crispEdges"/>
<circle cx="46.5" cy="27.5" r="10.6584" stroke="white" stroke-opacity="0.7" stroke-width="1.68313" shape-rendering="crispEdges"/>
</g>
<defs>
<filter id="filter0_di_37_96" x="0.584367" y="3" width="91.8313" height="93.8313" filterUnits="userSpaceOnUse" color-interpolation-filters="sRGB">
<feFlood flood-opacity="0" result="BackgroundImageFix"/>
<feColorMatrix in="SourceAlpha" type="matrix" values="0 0 0 0 0 0 0 0 0 0 0 0 0 0 0 0 0 0 127 0" result="hardAlpha"/>
<feOffset dy="8.41563"/>
<feGaussianBlur stdDeviation="4.20782"/>
<feComposite in2="hardAlpha" operator="out"/>
<feColorMatrix type="matrix" values="0 0 0 0 0 0 0 0 0 0 0 0 0 0 0 0 0 0 0.1 0"/>
<feBlend mode="normal" in2="BackgroundImageFix" result="effect1_dropShadow_37_96"/>
<feBlend mode="normal" in="SourceGraphic" in2="effect1_dropShadow_37_96" result="shape"/>
<feColorMatrix in="SourceAlpha" type="matrix" values="0 0 0 0 0 0 0 0 0 0 0 0 0 0 0 0 0 0 127 0" result="hardAlpha"/>
<feOffset dy="8.41563"/>
<feGaussianBlur stdDeviation="8.41563"/>
<feComposite in2="hardAlpha" operator="arithmetic" k2="-1" k3="1"/>
<feColorMatrix type="matrix" values="0 0 0 0 0.545126 0 0 0 0 0.570386 0 0 0 0 0.615853 0 0 0 1 0"/>
<feBlend mode="normal" in2="shape" result="effect2_innerShadow_37_96"/>
</filter>
<filter id="filter1_d_37_96" x="15.5844" y="36.7922" width="61.8313" height="45.8313" filterUnits="userSpaceOnUse" color-interpolation-filters="sRGB">
<feFlood flood-opacity="0" result="BackgroundImageFix"/>
<feColorMatrix in="SourceAlpha" type="matrix" values="0 0 0 0 0 0 0 0 0 0 0 0 0 0 0 0 0 0 127 0" result="hardAlpha"/>
<feOffset dy="4.20782"/>
<feGaussianBlur stdDeviation="4.20782"/>
<feComposite in2="hardAlpha" operator="out"/>
<feColorMatrix type="matrix" values="0 0 0 0 0.517287 0 0 0 0 0.534008 0 0 0 0 0.571631 0 0 0 1 0"/>
<feBlend mode="normal" in2="BackgroundImageFix" result="effect1_dropShadow_37_96"/>
<feBlend mode="normal" in="SourceGraphic" in2="effect1_dropShadow_37_96" result="shape"/>
</filter>
<filter id="filter2_d_37_96" x="13.9609" y="3.37655" width="65.0782" height="65.0782" filterUnits="userSpaceOnUse" color-interpolation-filters="sRGB">
<feFlood flood-opacity="0" result="BackgroundImageFix"/>
<feColorMatrix in="SourceAlpha" type="matrix" values="0 0 0 0 0 0 0 0 0 0 0 0 0 0 0 0 0 0 127 0" result="hardAlpha"/>
<feOffset dy="8.41563"/>
<feGaussianBlur stdDeviation="10.5195"/>
<feComposite in2="hardAlpha" operator="out"/>
<feColorMatrix type="matrix" values="0 0 0 0 0.517287 0 0 0 0 0.534008 0 0 0 0 0.571631 0 0 0 1 0"/>
<feBlend mode="normal" in2="BackgroundImageFix" result="effect1_dropShadow_37_96"/>
<feBlend mode="normal" in="SourceGraphic" in2="effect1_dropShadow_37_96" result="shape"/>
</filter>
<linearGradient id="paint0_linear_37_96" x1="46.5" y1="3" x2="46.5" y2="80" gradientUnits="userSpaceOnUse">
<stop stop-color="#D1D5DB"/>
<stop offset="1" stop-color="#D1D5DB" stop-opacity="0"/>
</linearGradient>
<linearGradient id="paint1_linear_37_96" x1="46.5" y1="53.5667" x2="46.5" y2="70" gradientUnits="userSpaceOnUse">
<stop stop-color="white"/>
<stop offset="1" stop-color="white" stop-opacity="0.3"/>
</linearGradient>
<linearGradient id="paint2_linear_37_96" x1="46.5" y1="25.9667" x2="46.5" y2="39" gradientUnits="userSpaceOnUse">
<stop stop-color="white"/>
<stop offset="1" stop-color="white" stop-opacity="0.3"/>
</linearGradient>
</defs>
</svg>
